<?xml version="1.0" standalone="no"?>
<!DOCTYPE svg PUBLIC "-//W3C//DTD SVG 20010904//EN"
 "http://www.w3.org/TR/2001/REC-SVG-20010904/DTD/svg10.dtd">
<svg version="1.0" xmlns="http://www.w3.org/2000/svg"
 width="494.000000pt" height="113.000000pt" viewBox="0 0 494.000000 113.000000"
 preserveAspectRatio="xMidYMid meet">

<g transform="translate(0.000000,113.000000) scale(0.100000,-0.100000)"
fill="#000000" stroke="none">
<path d="M1711 999 c-78 -24 -156 -95 -195 -178 -30 -66 -30 -216 0 -282 30
-64 88 -125 148 -157 44 -23 64 -27 136 -27 76 0 91 3 138 29 65 36 107 82
141 156 22 46 26 69 26 140 0 73 -4 94 -29 148 -51 110 -143 173 -261 178 -38
2 -85 -1 -104 -7z m148 -133 c111 -58 141 -228 58 -323 -78 -89 -193 -79 -252
20 -95 163 44 380 194 303z"/>
<path d="M3003 994 c-61 -22 -137 -95 -170 -162 -25 -50 -28 -68 -28 -152 0
-76 4 -104 21 -141 30 -64 88 -125 148 -157 44 -23 64 -27 136 -27 76 0 91 3
138 29 65 36 107 82 141 156 37 80 37 202 0 280 -57 121 -144 182 -269 187
-50 2 -89 -3 -117 -13z m165 -128 c67 -35 103 -98 104 -182 1 -72 -17 -117
-62 -158 -160 -145 -355 98 -228 284 43 62 126 87 186 56z"/>
<path d="M150 945 c0 -52 1 -55 25 -55 l25 0 0 -210 0 -210 -25 0 c-24 0 -25
-3 -25 -55 l0 -55 120 0 120 0 0 55 c0 52 -1 55 -25 55 l-25 0 0 153 0 152 32
-50 c18 -27 79 -121 135 -208 l103 -157 70 0 70 0 0 265 0 265 25 0 c24 0 25
3 25 55 l0 55 -120 0 -120 0 0 -55 c0 -52 1 -55 25 -55 l25 0 0 -152 0 -153
-58 90 c-32 50 -91 143 -132 208 l-74 117 -98 0 -98 0 0 -55z"/>
<path d="M900 935 l0 -65 30 0 30 0 0 -200 0 -200 -30 0 c-30 0 -30 -1 -30
-55 l0 -55 255 0 255 0 0 115 0 115 -70 0 -70 0 0 -60 0 -61 -82 3 -83 3 0 75
0 75 63 3 62 3 0 59 0 60 -65 0 -65 0 0 60 0 60 85 0 85 0 0 -45 0 -45 70 0
70 0 0 110 0 110 -255 0 -255 0 0 -65z"/>
<path d="M2220 946 c0 -54 0 -55 33 -58 l32 -3 0 -205 0 -205 -32 -3 c-33 -3
-33 -4 -33 -58 l0 -54 255 0 255 0 0 115 0 115 -65 0 -65 0 0 -44 c0 -64 -16
-76 -101 -76 l-69 0 0 210 0 210 30 0 c30 0 30 1 30 55 l0 55 -135 0 -135 0 0
-54z"/>
<path d="M3530 946 c0 -54 0 -55 33 -58 l32 -3 0 -205 0 -205 -32 -3 c-33 -3
-33 -4 -33 -58 l0 -54 135 0 135 0 0 55 c0 54 0 55 -30 55 l-30 0 0 76 0 77
52 -6 c74 -9 95 -33 114 -132 8 -44 17 -90 20 -102 4 -22 9 -23 94 -23 l90 0
0 60 c0 57 -1 60 -25 60 -20 0 -26 7 -35 43 -16 61 -41 116 -59 128 -12 8 -13
11 -3 16 35 14 73 58 83 96 24 91 -11 170 -93 211 -51 25 -57 26 -250 26
l-198 0 0 -54z m360 -76 c26 -14 42 -54 34 -86 -9 -35 -53 -54 -124 -54 l-60
0 0 81 0 82 65 -6 c36 -4 74 -11 85 -17z"/>
<path d="M4304 738 c-79 -233 -92 -263 -111 -266 -21 -3 -23 -9 -23 -58 l0
-54 120 0 120 0 0 55 c0 54 0 55 -30 55 -33 0 -35 6 -18 62 l11 39 100 -3 100
-3 13 -45 c8 -25 14 -46 14 -47 0 -2 -13 -3 -30 -3 -30 0 -30 -1 -30 -55 l0
-55 120 0 120 0 0 54 c0 49 -2 55 -22 58 -21 3 -32 32 -109 263 l-85 260 -86
3 -86 3 -88 -263z m226 -50 c0 -15 -9 -18 -60 -18 -33 0 -60 4 -60 9 0 13 50
173 58 186 6 10 61 -147 62 -177z"/>
<path d="M2265 180 c-17 -7 -17 -9 -2 -9 9 -1 17 -7 17 -15 0 -8 -8 -17 -17
-19 -10 -3 552 -5 1250 -6 l1267 -1 0 30 0 30 -1247 -1 c-687 0 -1257 -4
-1268 -9z"/>
</g>
</svg>
